# File created by Blade
# Date/Time:  Mon Sep 22 15:39:46 2014
# Frame Rate: 120.000 fps
#------------------------------------------------------
:FULLY-SPECIFIED
:DEGREES
2508
root 1.424226 37.003110 3.272044 1.497554 -11.089994 0.694759
RightUpLeg 6.922495 -1.185881 -1.766512
RightLeg -5.273388 -0.000000 0.000000
RightFoot -12.060799 -11.829043 15.400999
RightToeBase 15.426758 -0.000000 -0.000000
LeftUpLeg 8.339852 7.796735 3.454904
LeftLeg -3.603371 -0.000000 0.000000
LeftFoot -11.169308 15.127190 -19.434774
LeftToeBase 7.297626 -0.000000 -0.000000
Spine 2.094774 -20.567218 -6.735739
RightShoulder -6.473577 -6.481255 -24.388214
RightArm -210.990981 103.100698 -172.729714
RightForeArm 77.351440 0.000000 103.535386
RightHand 19.432856 -0.000000 -10.087877
RightHandThumb1 -24.326973 -0.000000 -32.862282
LeftShoulder -19.789101 37.476154 -7.996382
LeftArm 38.263203 11.196362 -64.505930
LeftForeArm 22.147276 -0.000000 25.021888
LeftHand -15.040503 -0.000000 -9.017180
LeftHandThumb1 -26.253704 0.000000 33.147579
Head 2.785665 -41.099412 8.029973
2509
root 1.423924 37.003802 3.267278 1.445503 -11.328208 0.671773
RightUpLeg 6.932953 -1.063131 -1.758024
RightLeg -5.265272 -0.000000 0.000000
RightFoot -12.010496 -11.749049 15.372318
RightToeBase 15.434839 -0.000000 -0.000000
LeftUpLeg 8.419653 7.943584 3.464100
LeftLeg -3.585903 -0.000000 0.000000
LeftFoot -11.238958 15.251431 -19.454599
LeftToeBase 7.332288 -0.000000 -0.000000
Spine 2.137764 -20.543943 -6.734683
RightShoulder -6.376382 -6.458907 -24.370856
RightArm -210.481664 103.158300 -172.330363
RightForeArm 77.252435 0.000000 103.604783
RightHand 19.322295 -0.000000 -10.133594
RightHandThumb1 -24.326973 -0.000000 -32.862282
LeftShoulder -19.704101 37.437599 -7.917442
LeftArm 38.394153 11.336245 -64.326923
LeftForeArm 21.947679 0.000000 25.149024
LeftHand -15.000691 -0.000000 -8.745863
LeftHandThumb1 -26.253704 0.000000 33.147579
Head 2.811654 -41.286943 8.076053
2510
root 1.428595 37.004009 3.264322 1.401248 -11.586290 0.663184
RightUpLeg 6.903403 -0.990287 -1.773239
RightLeg -5.202485 -0.000000 0.000000
RightFoot -11.973664 -11.583052 15.297177
RightToeBase 15.461399 -0.000000 -0.000000
LeftUpLeg 8.505944 8.015728 3.447688
LeftLeg -3.594343 -0.000000 0.000000
LeftFoot -11.321770 15.416669 -19.502953
LeftToeBase 7.394823 -0.000000 -0.000000
Spine 2.146471 -20.484023 -6.710888
RightShoulder -6.274596 -6.427817 -24.395925
RightArm -209.996467 103.210355 -171.937320
RightForeArm 77.113983 -0.000000 103.688459
RightHand 19.272516 -0.000000 -10.092887
RightHandThumb1 -24.326973 -0.000000 -32.862282
LeftShoulder -19.597213 37.357776 -7.866712
LeftArm 38.442379 11.364822 -64.191658
LeftForeArm 22.074129 -0.000000 25.384207
LeftHand -14.965814 -0.000000 -9.177289
LeftHandThumb1 -26.253704 0.000000 33.147579
Head 2.903301 -41.414330 7.994726
2511
root 1.433046 37.003817 3.257223 1.358346 -11.800211 0.636928
RightUpLeg 6.903884 -0.871706 -1.771261
RightLeg -5.191699 -0.000000 0.000000
RightFoot -11.938680 -11.468726 15.324849
RightToeBase 15.495340 -0.000000 -0.000000
LeftUpLeg 8.584033 8.018834 3.447101
LeftLeg -3.611093 -0.000000 0.000000
LeftFoot -11.379151 15.614074 -19.519228
LeftToeBase 7.325127 -0.000000 -0.000000
Spine 2.183817 -20.457060 -6.675843
RightShoulder -6.193626 -6.438834 -24.401825
RightArm -209.347846 103.176254 -171.407551
RightForeArm 77.009470 0.000000 103.768961
RightHand 19.222297 -0.000000 -10.080559
RightHandThumb1 -24.326973 -0.000000 -32.862282
LeftShoulder -19.526836 37.280784 -7.818577
LeftArm 38.572033 11.446902 -64.031905
LeftForeArm 21.988970 0.000000 25.527305
LeftHand -14.927769 -0.000000 -9.129528
LeftHandThumb1 -26.253704 0.000000 33.147579
Head 2.892960 -41.550616 8.013310
2512
root 1.435454 37.003510 3.252299 1.329531 -12.008196 0.617756
RightUpLeg 6.901034 -0.758731 -1.766525
RightLeg -5.199890 -0.000000 0.000000
RightFoot -11.897229 -11.399572 15.316169
RightToeBase 15.505062 -0.000000 -0.000000
LeftUpLeg 8.658210 8.084895 3.447481
LeftLeg -3.641357 -0.000000 0.000000
LeftFoot -11.429357 15.741992 -19.553194
LeftToeBase 7.360633 -0.000000 -0.000000
Spine 2.170977 -20.423756 -6.644710
RightShoulder -6.063624 -6.349731 -24.448478
RightArm -208.960626 103.269007 -171.089412
RightForeArm 76.971119 -0.000000 103.863265
RightHand 19.236414 0.000000 -10.025393
RightHandThumb1 -24.326973 -0.000000 -32.862282
LeftShoulder -19.429704 37.229361 -7.740096
LeftArm 38.655464 11.450208 -63.997141
LeftForeArm 21.921796 -0.000000 25.724967
LeftHand -15.103408 -0.000000 -8.974923
LeftHandThumb1 -26.253704 0.000000 33.147579
Head 2.962125 -41.649077 7.985379
2513
root 1.438253 37.003434 3.245407 1.327527 -12.217663 0.596028
RightUpLeg 6.867263 -0.618950 -1.757982
RightLeg -5.199541 -0.000000 0.000000
RightFoot -11.848246 -11.339094 15.314627
RightToeBase 15.422119 -0.000000 -0.000000
LeftUpLeg 8.692867 8.196705 3.452972
LeftLeg -3.649633 -0.000000 0.000000
LeftFoot -11.492075 15.823055 -19.595252
LeftToeBase 7.427939 -0.000000 -0.000000
Spine 2.133593 -20.368801 -6.601166
RightShoulder -5.964987 -6.268640 -24.470072
RightArm -208.445117 103.336532 -170.678589
RightForeArm 76.869953 -0.000000 103.934097
RightHand 19.235889 -0.000000 -9.967175
RightHandThumb1 -24.326973 -0.000000 -32.862282
LeftShoulder -19.352662 37.191502 -7.674269
LeftArm 38.781947 11.326768 -64.055816
LeftForeArm 22.046442 -0.000000 25.844763
LeftHand -14.899833 0.000000 -9.280615
LeftHandThumb1 -26.253704 0.000000 33.147579
Head 3.008438 -41.756802 7.984726
2514
root 1.440701 37.003213 3.237992 1.323910 -12.431942 0.576209
RightUpLeg 6.835280 -0.463838 -1.741217
RightLeg -5.207602 -0.000000 0.000000
RightFoot -11.813588 -11.341494 15.284233
RightToeBase 15.445809 -0.000000 -0.000000
LeftUpLeg 8.734193 8.294328 3.455704
LeftLeg -3.668980 -0.000000 0.000000
LeftFoot -11.515258 15.939862 -19.593956
LeftToeBase 7.357891 -0.000000 -0.000000
Spine 2.097834 -20.288526 -6.562105
RightShoulder -5.862149 -6.219935 -24.501616
RightArm -207.983639 103.377268 -170.288842
RightForeArm 76.804305 -0.000000 104.007878
RightHand 19.264740 -0.000000 -9.871892
RightHandThumb1 -24.326973 -0.000000 -32.862282
LeftShoulder -19.270446 37.130739 -7.597903
LeftArm 38.880340 11.346561 -64.009906
LeftForeArm 21.931903 -0.000000 26.027714
LeftHand -15.072260 -0.000000 -8.950733
LeftHandThumb1 -26.253704 0.000000 33.147579
Head 3.079363 -41.863023 7.952670
2515
root 1.445077 37.002803 3.230446 1.310931 -12.618448 0.559063
RightUpLeg 6.812442 -0.363635 -1.739859
RightLeg -5.209591 -0.000000 0.000000
RightFoot -11.773600 -11.264999 15.267267
RightToeBase 15.500295 -0.000000 -0.000000
LeftUpLeg 8.775616 8.364747 3.454884
LeftLeg -3.677536 -0.000000 0.000000
LeftFoot -11.574171 16.024392 -19.616837
LeftToeBase 7.526578 -0.000000 -0.000000
Spine 2.081419 -20.204635 -6.521290
RightShoulder -5.773757 -6.177405 -24.526565
RightArm -207.573792 103.373677 -169.954949
RightForeArm 76.790905 -0.000000 104.099587
RightHand 19.259143 -0.000000 -9.829757
RightHandThumb1 -24.326973 -0.000000 -32.862282
LeftShoulder -19.183054 37.056574 -7.528166
LeftArm 38.960848 11.248573 -64.033853
LeftForeArm 21.983149 -0.000000 26.240913
LeftHand -15.056613 -0.000000 -9.042725
LeftHandThumb1 -26.253704 0.000000 33.147579
Head 3.100899 -41.936652 7.955567
2516
root 1.448821 37.002932 3.221764 1.302345 -12.782748 0.534824
RightUpLeg 6.791154 -0.245208 -1.728388
RightLeg -5.214543 -0.000000 0.000000
RightFoot -11.711130 -11.234923 15.232384
RightToeBase 15.440582 -0.000000 -0.000000
LeftUpLeg 8.809885 8.460019 3.468977
LeftLeg -3.696813 -0.000000 0.000000
LeftFoot -11.595347 16.100808 -19.616041
LeftToeBase 7.422125 -0.000000 -0.000000
Spine 2.070137 -20.134994 -6.477789
RightShoulder -5.692703 -6.134984 -24.537596
RightArm -207.077538 103.346414 -169.548360
RightForeArm 76.934244 -0.000000 104.203100
RightHand 19.250254 -0.000000 -9.850074
RightHandThumb1 -24.326973 -0.000000 -32.862282
LeftShoulder -19.102965 36.985560 -7.461153
LeftArm 39.041997 11.189515 -64.036565
LeftForeArm 21.806501 -0.000000 26.493840
LeftHand -15.046253 -0.000000 -8.937085
LeftHandThumb1 -26.253704 0.000000 33.147579
Head 3.107230 -42.034882 7.977712
2517
root 1.454653 37.003284 3.212904 1.300361 -12.926721 0.527043
RightUpLeg 6.761257 -0.167551 -1.736759
RightLeg -5.218234 -0.000000 0.000000
RightFoot -11.700062 -11.158838 15.283168
RightToeBase 15.520416 -0.000000 -0.000000
LeftUpLeg 8.831717 8.526905 3.459547
LeftLeg -3.719324 -0.000000 0.000000
LeftFoot -11.622453 16.175442 -19.655466
LeftToeBase 7.452676 -0.000000 -0.000000
Spine 2.055390 -20.082445 -6.447028
RightShoulder -5.611928 -6.134494 -24.527730
RightArm -206.556672 103.247373 -169.129705
RightForeArm 76.917971 -0.000000 104.266009
RightHand 19.277948 -0.000000 -9.757974
RightHandThumb1 -24.326973 -0.000000 -32.862282
LeftShoulder -19.047270 36.907531 -7.402225
LeftArm 39.125915 11.094058 -64.067582
LeftForeArm 21.755681 -0.000000 26.721401
LeftHand -15.005224 -0.000000 -8.892023
LeftHandThumb1 -26.253704 0.000000 33.147579
Head 3.090247 -42.104650 8.020882
